<svg xmlns="http://www.w3.org/2000/svg" viewBox="0 0 200 240" fill="none">
  <!-- Shield shape -->
  <path d="M100 8 L188 50 L188 140 Q188 200 100 232 Q12 200 12 140 L12 50 Z" fill="#0B1020" stroke="#C8A95A" stroke-width="3"/>
  <!-- Inner shield -->
  <path d="M100 22 L176 58 L176 138 Q176 190 100 218 Q24 190 24 138 L24 58 Z" fill="none" stroke="#C8A95A" stroke-width="1" opacity="0.5"/>
  <!-- Cross -->
  <line x1="100" y1="60" x2="100" y2="180" stroke="#C8A95A" stroke-width="2.5" opacity="0.7"/>
  <line x1="55" y1="110" x2="145" y2="110" stroke="#C8A95A" stroke-width="2.5" opacity="0.7"/>
  <!-- Corner ornaments -->
  <circle cx="65" cy="78" r="8" fill="none" stroke="#8B1E2D" stroke-width="1.5"/>
  <circle cx="135" cy="78" r="8" fill="none" stroke="#8B1E2D" stroke-width="1.5"/>
  <circle cx="65" cy="155" r="8" fill="none" stroke="#8B1E2D" stroke-width="1.5"/>
  <circle cx="135" cy="155" r="8" fill="none" stroke="#8B1E2D" stroke-width="1.5"/>
  <!-- Stars in quadrants -->
  <polygon points="65,75 67,80 72,80 68,83 70,88 65,85 60,88 62,83 58,80 63,80" fill="#C8A95A" opacity="0.8"/>
  <polygon points="135,75 137,80 142,80 138,83 140,88 135,85 130,88 132,83 128,80 133,80" fill="#C8A95A" opacity="0.8"/>
  <polygon points="65,152 67,157 72,157 68,160 70,165 65,162 60,165 62,160 58,157 63,157" fill="#C8A95A" opacity="0.8"/>
  <polygon points="135,152 137,157 142,157 138,160 140,165 135,162 130,165 132,160 128,157 133,157" fill="#C8A95A" opacity="0.8"/>
  <!-- Letter C -->
  <text x="100" y="125" text-anchor="middle" font-family="serif" font-size="48" font-weight="bold" fill="#C8A95A">C</text>
  <!-- Banner -->
  <path d="M40 200 Q100 185 160 200 Q100 215 40 200 Z" fill="#8B1E2D" stroke="#C8A95A" stroke-width="1"/>
  <text x="100" y="205" text-anchor="middle" font-family="serif" font-size="11" fill="#F3F1EA" letter-spacing="3">CIPRIANO</text>
</svg>
